 <svg version="1.0" xmlns="http://www.w3.org/2000/svg"  width="300.000000pt" height="300.000000pt" viewBox="0 0 300.000000 300.000000"  preserveAspectRatio="xMidYMid meet">  <g transform="translate(60.000000,100.000000) scale(0.030000,-0.030000)" fill="#000000" stroke="none"> <path d="M2336 2491 c-280 -61 -517 -161 -668 -282 -114 -90 -227 -244 -207 -281 19 -35 46 -21 85 44 75 123 212 237 378 313 102 48 318 120 416 140 100 20 252 17 320 -8 38 -14 47 -14 58 -3 8 8 11 22 8 34 -17 54 -231 77 -390 43z"/> <path d="M250 2272 c-47 -15 -55 -21 -58 -45 -4 -36 14 -42 79 -23 121 36 302 9 526 -80 207 -82 331 -172 415 -300 41 -65 64 -78 88 -49 10 12 6 25 -21 71 -68 120 -224 247 -386 314 -286 120 -499 157 -643 112z"/> <path d="M2070 2164 c-47 -9 -125 -37 -175 -62 -74 -37 -249 -158 -301 -208 -90 -88 -136 -237 -137 -444 0 -197 46 -353 148 -495 92 -129 235 -221 388 -250 92 -18 288 -20 373 -4 225 42 345 230 346 544 0 207 -42 394 -132 580 -78 161 -182 269 -308 318 -44 17 -158 29 -202 21z m204 -97 c145 -67 266 -254 331 -511 45 -180 48 -176 -52 -77 -66 65 -109 97 -174 130 -91 48 -119 49 -119 6 0 -21 10 -29 63 -53 84 -39 161 -98 230 -179 31 -37 57 -70 57 -73 0 -4 -37 4 -82 17 -207 60 -456 87 -732 81 -198 -5 -246 -12 -246 -41 0 -7 -11 -20 -24 -29 l-23 -17 -6 52 c-7 57 -2 69 30 61 15 -4 19 -11 15 -27 -5 -19 -3 -20 10 -10 27 22 194 101 249 117 29 9 65 16 80 16 34 0 53 22 44 51 -7 20 -12 21 -66 15 -70 -7 -192 -52 -274 -101 -32 -20 -60 -33 -63 -31 -8 9 19 176 38 240 27 85 74 144 173 214 146 104 238 151 342 176 46 11 144 -2 199 -27z m402 -761 c2 -38 -1 -66 -6 -66 -6 0 -10 5 -10 11 0 5 -4 7 -10 4 -5 -3 -10 -1 -10 4 0 6 -7 11 -15 11 -18 0 -20 16 -4 26 7 4 9 21 6 40 -4 25 -1 36 11 43 26 15 34 -1 38 -73z m-576 59 c124 -13 275 -37 318 -51 10 -3 8 -10 -6 -31 -10 -16 -34 -52 -53 -81 -50 -77 -156 -147 -241 -158 l-42 -6 27 32 c50 59 48 113 -8 166 -61 57 -140 52 -184 -12 -25 -36 -30 -89 -12 -123 20 -37 -15 -25 -58 19 -45 47 -67 90 -81 157 -5 26 -12 58 -16 70 -5 18 -1 22 23 26 32 4 265 -1 333 -8z m-380 -65 c0 -58 35 -142 82 -194 134 -153 378 -144 544 19 28 28 62 74 75 102 27 59 13 57 149 18 l75 -21 -3 -50 c-8 -132 -46 -236 -113 -309 -76 -83 -149 -105 -342 -105 -225 0 -342 43 -467 169 -84 85 -135 175 -169 298 -18 67 -18 72 -3 86 22 19 45 24 115 26 l57 1 0 -40z m349 -86 c64 -54 28 -144 -58 -144 -66 0 -106 60 -81 121 23 54 90 65 139 23z"/> <path d="M197 1914 c-68 -73 -77 -86 -67 -104 19 -36 46 -23 122 61 78 86 92 123 48 126 -19 1 -42 -17 -103 -83z"/> <path d="M600 1973 c-111 -39 -210 -134 -276 -265 -161 -320 -167 -715 -14 -900 36 -44 133 -94 209 -108 75 -14 212 -12 306 5 214 38 389 209 454 443 55 201 27 443 -67 567 -72 95 -262 221 -391 259 -68 20 -162 19 -221 -1z m195 -64 c52 -14 164 -71 235 -119 66 -45 131 -113 158 -167 22 -42 52 -173 52 -224 0 -30 -1 -31 -18 -16 -32 29 -185 95 -251 108 -58 11 -65 11 -77 -6 -22 -30 -1 -50 65 -62 34 -7 103 -31 153 -56 l93 -43 -201 4 c-122 3 -242 0 -305 -8 -189 -21 -409 -73 -401 -94 3 -7 -45 -46 -58 -46 -3 0 -4 31 -2 70 3 58 7 70 21 70 27 0 41 -20 31 -45 -5 -13 -7 -25 -4 -28 3 -2 44 34 92 82 62 61 107 96 157 121 69 35 83 52 66 79 -8 12 -16 13 -50 3 -56 -17 -182 -104 -229 -157 -22 -25 -42 -45 -45 -45 -9 0 49 210 78 283 55 138 159 259 248 290 50 18 137 21 192 6z m473 -604 c-4 -45 -17 -52 -47 -28 -19 15 -21 22 -12 45 10 26 39 41 54 28 5 -4 7 -24 5 -45z m-241 -15 l31 0 -13 -37 c-7 -21 -19 -58 -26 -82 -14 -46 -48 -94 -78 -110 -14 -8 -16 -2 -16 41 0 44 -4 53 -33 79 -51 46 -115 39 -169 -19 -29 -31 -30 -76 -3 -119 20 -33 20 -33 0 -33 -51 0 -168 83 -210 149 -8 13 -23 34 -33 47 -10 13 -16 28 -13 32 5 8 80 24 176 38 19 2 89 7 155 11 66 3 122 8 125 10 3 3 21 2 40 -1 19 -3 49 -6 67 -6z m187 -49 c17 -19 17 -23 1 -78 -79 -272 -287 -414 -589 -401 -85 4 -123 10 -163 28 -60 26 -126 92 -153 153 -23 52 -43 153 -38 191 3 26 9 31 63 46 112 31 115 32 115 15 0 -23 42 -85 86 -127 49 -46 122 -83 196 -98 74 -15 161 6 227 53 56 41 111 138 111 198 l0 39 63 0 c50 0 68 -4 81 -19z m-344 -81 c31 -31 30 -85 -2 -112 -47 -41 -128 -9 -128 50 0 66 85 107 130 62z"/> <path d="M2695 834 c-8 -19 -24 -49 -36 -65 -22 -31 -20 -55 6 -66 40 -15 123 118 95 152 -22 26 -49 18 -65 -21z"/> <path d="M2800 740 c-12 -23 -37 -59 -57 -81 -29 -32 -35 -44 -26 -57 26 -43 60 -23 124 71 44 67 45 70 23 91 -25 25 -42 19 -64 -24z"/> <path d="M212 658 c-22 -22 -12 -49 36 -96 64 -65 155 -89 227 -62 21 8 26 16 23 38 -3 27 -4 27 -64 24 -74 -4 -110 11 -155 68 -34 42 -47 48 -67 28z"/> </g> </svg> 