 <svg version="1.0" xmlns="http://www.w3.org/2000/svg"  width="256.000000pt" height="256.000000pt" viewBox="0 0 256.000000 256.000000"  preserveAspectRatio="xMidYMid meet">  <g transform="translate(60.000000,100.000000) scale(0.030000,-0.030000)" fill="#000000" stroke="none"> <path d="M1850 2020 c-113 -24 -219 -103 -271 -203 -34 -66 -34 -97 -2 -97 12 0 26 18 42 52 94 206 380 259 540 99 51 -51 78 -105 126 -251 60 -182 112 -271 150 -257 23 9 18 30 -19 85 -20 30 -51 106 -80 195 -53 166 -101 248 -175 303 -87 64 -212 94 -311 74z"/> <path d="M1392 1788 c-6 -6 -12 -20 -12 -29 0 -26 -45 -74 -86 -94 -55 -26 -133 -21 -289 20 -135 36 -144 37 -275 32 -179 -6 -299 -44 -440 -140 -77 -53 -180 -158 -180 -184 0 -45 27 -37 81 22 65 71 156 136 251 179 112 52 196 70 323 69 94 0 126 -5 220 -33 187 -55 302 -52 379 12 63 52 97 148 56 156 -9 1 -21 -3 -28 -10z"/> <path d="M1708 1631 c-126 -41 -209 -124 -257 -256 -17 -47 -31 -95 -31 -106 0 -31 -15 -22 -30 18 -21 59 -124 156 -192 181 -162 61 -415 54 -549 -13 -70 -36 -141 -111 -181 -192 -31 -63 -33 -74 -33 -168 0 -96 2 -105 37 -176 46 -93 122 -168 215 -212 65 -30 74 -32 188 -32 105 0 129 3 193 27 145 52 298 167 331 246 17 40 23 40 40 1 26 -59 123 -146 207 -186 73 -35 86 -38 169 -38 78 0 98 4 150 28 158 74 227 219 229 482 1 117 -2 149 -19 194 -28 77 -99 151 -177 186 -83 38 -205 44 -290 16z m277 -73 c107 -56 147 -131 153 -287 8 -199 -31 -336 -121 -417 -155 -139 -416 -72 -536 137 -43 77 -47 117 -18 229 42 161 64 209 126 271 78 78 137 100 256 96 73 -3 99 -8 140 -29z m-893 -119 c116 -25 210 -95 258 -194 35 -72 39 -174 10 -243 -60 -140 -293 -273 -475 -273 -167 0 -287 70 -362 213 -25 47 -28 64 -28 148 0 84 3 102 28 152 50 102 146 175 259 197 64 13 249 13 310 0z"/> <path d="M1695 1314 c-75 -39 -130 -123 -122 -186 9 -70 83 -128 162 -128 87 0 135 63 135 178 0 64 -2 70 -32 99 -59 56 -91 64 -143 37z m5 -63 c-17 -33 -11 -67 17 -95 27 -28 51 -30 96 -11 24 10 23 -21 -3 -62 -62 -102 -243 -5 -189 100 14 27 70 87 81 87 5 0 4 -9 -2 -19z m105 -21 c14 -28 14 -31 -5 -50 -36 -36 -70 -19 -70 35 0 38 6 45 36 45 16 0 29 -10 39 -30z"/> <path d="M1075 1322 c-47 -29 -103 -98 -110 -135 -13 -67 58 -159 131 -173 54 -10 109 11 141 53 69 90 1 273 -101 273 -17 0 -44 -8 -61 -18z m74 -76 c30 -36 -9 -104 -46 -80 -32 20 -38 40 -20 68 19 29 48 34 66 12z m76 -66 c3 -20 1 -48 -4 -63 -12 -31 -65 -67 -99 -67 -63 0 -132 83 -112 135 9 25 30 27 30 3 0 -7 10 -22 22 -35 45 -48 120 -18 134 56 8 38 20 26 29 -29z"/> <path d="M315 900 c-21 -34 57 -168 130 -223 53 -41 127 -72 150 -64 34 14 16 43 -40 66 -85 35 -155 115 -188 214 -7 18 -42 23 -52 7z"/> <path d="M2165 898 c-32 -93 -52 -131 -91 -176 -38 -43 -44 -55 -34 -67 18 -22 33 -18 66 18 71 75 126 195 103 223 -14 17 -38 18 -44 2z"/> <path d="M2205 749 c-4 -12 -23 -39 -42 -60 -35 -39 -40 -71 -12 -77 33 -6 124 113 112 146 -8 21 -51 14 -58 -9z"/> <path d="M280 745 c-11 -13 -9 -22 6 -50 23 -43 87 -110 136 -143 31 -20 41 -22 53 -12 21 18 19 37 -6 51 -39 21 -110 92 -130 131 -21 41 -39 47 -59 23z"/> </g> </svg> 