 <svg version="1.0" xmlns="http://www.w3.org/2000/svg"  width="300.000000pt" height="300.000000pt" viewBox="0 0 300.000000 300.000000"  preserveAspectRatio="xMidYMid meet">  <g transform="translate(60.000000,100.000000) scale(0.030000,-0.030000)" fill="#000000" stroke="none"> <path d="M1078 2375 c-67 -18 -126 -55 -179 -112 -61 -65 -92 -120 -128 -229 -39 -117 -40 -141 -4 -94 93 121 257 210 388 210 26 0 36 4 32 13 -2 6 -10 60 -18 120 -14 119 -10 115 -91 92z m45 -49 c3 -8 9 -41 13 -74 7 -67 12 -62 -80 -82 -57 -13 -148 -53 -193 -86 -17 -13 -34 -21 -37 -16 -9 15 47 114 95 167 71 77 187 130 202 91z"/> <path d="M1771 2273 c-7 -43 -15 -90 -18 -105 -5 -26 -3 -28 29 -28 46 0 143 -26 197 -53 24 -12 64 -41 88 -64 49 -48 51 -42 23 50 -21 68 -72 145 -126 191 -32 26 -150 86 -170 86 -6 0 -16 -35 -23 -77z m100 6 c51 -26 122 -90 148 -135 25 -42 15 -44 -60 -10 -30 14 -75 28 -102 31 -26 4 -51 14 -56 22 -11 21 9 113 25 113 3 0 23 -9 45 -21z"/> <path d="M1040 1954 c-73 -20 -137 -62 -209 -139 -311 -332 -267 -988 77 -1157 39 -19 63 -23 142 -23 84 0 102 3 152 28 129 63 235 201 293 382 4 14 14 -1 39 -63 83 -204 218 -333 384 -364 152 -28 308 70 392 247 54 113 65 174 65 360 0 201 -17 281 -92 435 -57 115 -146 211 -238 256 -54 26 -70 29 -155 29 -80 0 -103 -4 -145 -25 -73 -35 -163 -131 -206 -219 l-36 -74 -13 39 c-34 106 -129 222 -213 262 -91 43 -150 49 -237 26z m215 -56 c153 -79 275 -313 275 -528 l0 -60 -259 0 c-243 0 -444 -10 -570 -29 l-54 -8 6 72 c20 261 159 491 344 566 70 28 190 22 258 -13z m782 -23 c128 -62 254 -231 303 -405 19 -71 39 -250 27 -250 -3 0 -47 11 -99 25 -162 43 -273 56 -504 62 l-221 6 -7 116 c-9 160 -10 155 24 226 58 121 148 210 244 241 64 21 164 12 233 -21z m-512 -641 c-21 -167 -93 -323 -200 -430 -97 -97 -163 -129 -270 -129 -101 0 -157 25 -237 107 -91 92 -151 240 -165 409 l-6 69 75 0 75 0 6 -41 c5 -41 36 -84 67 -94 47 -15 110 49 110 111 l0 32 123 9 c67 6 191 11 276 11 l153 2 -7 -56z m129 21 c-9 -36 30 -110 65 -125 24 -9 35 -9 59 4 32 17 62 69 62 109 0 23 3 25 33 21 17 -2 106 -11 197 -20 91 -8 194 -21 230 -27 l65 -13 -2 -59 c-1 -32 -12 -91 -24 -129 -48 -162 -141 -283 -257 -338 -56 -27 -71 -30 -140 -27 -60 3 -90 11 -137 33 -115 56 -221 192 -273 351 -19 57 -19 64 -4 153 l16 92 58 0 c57 0 58 -1 52 -25z m165 9 c8 -7 -39 -92 -54 -98 -20 -7 -51 8 -65 34 -16 30 -12 37 19 32 18 -2 30 1 34 11 4 10 -1 13 -17 10 -13 -3 -28 2 -35 11 -12 14 -7 15 50 10 35 -4 66 -8 68 -10z m-859 0 c0 -2 -7 -22 -16 -44 -29 -73 -79 -74 -109 -3 -12 29 -13 38 -3 44 13 8 128 11 128 3z"/> </g> </svg> 