<svg version="1.0" xmlns="http://www.w3.org/2000/svg" width="300.000000pt" height="200.000000pt" viewBox="0 0 300.000000 200.000000"preserveAspectRatio="xMidYMid meet"><g transform="translate(60.000000,100.000000) scale(0.030000,-0.030000)" fill="#000000" stroke="none"> <path d="M1433 1621 c-14 -19 -49 -40 -100 -61 -178 -74 -234 -115 -300 -218 -36 -56 -76 -142 -69 -149 2 -2 32 26 67 63 87 91 163 139 281 175 139 43 183 87 176 175 -4 49 -26 55 -55 15z m-3 -76 c0 -19 -53 -52 -105 -65 -22 -6 -47 -14 -55 -19 -9 -5 -31 -12 -50 -16 -33 -6 -34 -6 -14 8 15 11 168 85 222 106 1 1 2 -6 2 -14z"/><path d="M1722 1518 c-19 -19 -14 -73 9 -102 12 -15 49 -40 84 -55 74 -34 146 -96 183 -160 35 -61 42 -31 12 50 -29 77 -86 140 -166 185 -35 19 -74 49 -87 65 -18 23 -25 27 -35 17z"/><path d="M1204 1334 c-95 -34 -160 -122 -194 -265 -23 -98 -31 -286 -12 -298 6 -4 21 -33 32 -65 26 -76 50 -115 103 -163 130 -120 303 -60 381 129 l22 56 17 -47 c26 -72 84 -141 147 -174 47 -24 63 -28 105 -23 72 8 123 47 163 126 45 90 56 146 56 285 0 97 -4 134 -22 190 -42 135 -122 205 -231 205 -92 0 -160 -52 -206 -155 l-22 -50 -8 35 c-19 87 -84 171 -160 206 -57 27 -111 29 -171 8z m186 -43 c83 -49 140 -166 140 -285 l0 -65 -37 -11 c-100 -29 -441 -123 -460 -127 -22 -5 -23 -3 -23 70 0 41 6 108 14 149 35 180 94 264 205 294 59 16 105 9 161 -25z m456 -40 c78 -36 121 -103 148 -234 20 -95 22 -211 4 -204 -7 2 -109 31 -225 63 l-213 59 0 62 c0 111 54 213 133 252 52 26 99 26 153 2z m-271 -341 c7 0 9 -15 7 -35 -10 -88 30 -155 92 -155 26 0 40 7 60 31 14 17 26 40 26 52 0 49 11 50 118 21 l100 -28 -5 -36 c-26 -191 -132 -288 -258 -236 -64 27 -137 126 -169 229 -9 29 -21 19 -33 -25 -18 -64 -73 -149 -118 -180 -46 -32 -97 -44 -151 -34 -53 10 -135 95 -162 168 -41 109 -47 99 72 131 58 16 109 29 113 28 5 0 12 -17 16 -38 10 -49 43 -83 79 -83 63 0 98 46 98 129 0 48 1 51 33 60 17 5 41 8 52 5 11 -2 25 -4 30 -4z m87 -77 c10 -9 18 -20 18 -25 0 -14 -22 -9 -36 10 -25 33 -13 44 18 15z m-227 -32 c-7 -35 -38 -61 -71 -61 -26 0 -64 44 -64 74 0 16 4 13 18 -14 13 -28 24 -36 50 -38 30 -3 34 0 50 37 19 45 27 46 17 2z m208 -40 c27 -22 66 -5 83 35 8 20 17 34 20 31 12 -12 -27 -78 -51 -87 -42 -16 -96 26 -95 75 1 15 4 13 14 -10 7 -17 20 -36 29 -44z"/></g></svg>