 <svg version="1.0" xmlns="http://www.w3.org/2000/svg" width="300.000000pt" height="271.000000pt" viewBox="0 0 300.000000 271.000000" preserveAspectRatio="xMidYMid meet"> <g transform="translate(82.000000,92.000000) scale(0.015000,-0.015000)" fill="#000000" stroke="none"> <path d="M790 2494 c-52 -20 -101 -51 -138 -87 -44 -43 -128 -174 -118 -184 3 -3 26 12 50 35 55 51 143 96 218 111 104 22 225 -16 334 -105 30 -25 54 -40 54 -35 0 23 -76 139 -116 178 -64 62 -116 86 -199 89 -38 2 -77 1 -85 -2z m152 -50 c25 -8 56 -26 69 -40 l23 -25 -44 16 c-75 26 -144 30 -216 10 -72 -19 -90 -16 -50 10 68 45 143 55 218 29z"/> <path d="M2018 2485 c-63 -20 -149 -101 -199 -187 -23 -38 -39 -72 -36 -74 3 -3 22 11 43 30 52 48 156 101 226 116 105 21 225 -17 334 -106 30 -25 54 -40 54 -35 0 21 -76 137 -116 177 -23 23 -62 53 -86 65 -55 28 -155 34 -220 14z m162 -36 c21 -6 51 -23 66 -36 29 -24 29 -24 4 -18 -106 26 -147 28 -219 11 -80 -19 -97 -17 -57 9 64 42 138 54 206 34z"/> <path d="M783 2155 c-250 -125 -424 -643 -423 -1261 0 -206 8 -302 42 -511 l21 -133 48 0 c47 0 87 -13 254 -80 146 -59 209 -54 425 39 69 29 109 40 147 41 l51 0 11 51 c52 239 69 497 53 767 -29 484 -151 860 -336 1030 -93 86 -195 105 -293 57z m171 -27 c29 -8 62 -33 112 -82 59 -59 80 -89 122 -176 52 -108 86 -199 78 -207 -3 -3 -14 15 -27 39 -87 174 -224 288 -345 288 -128 0 -238 -82 -339 -256 -21 -36 -40 -63 -42 -61 -5 6 45 144 74 202 38 76 108 169 154 205 70 57 134 71 213 48z m39 -202 c163 -79 312 -397 359 -766 27 -216 15 -552 -28 -775 l-16 -80 -44 -2 c-31 -1 -82 -19 -163 -57 -154 -72 -202 -83 -278 -61 -31 9 -91 34 -133 55 -88 44 -180 73 -203 64 -18 -6 -17 -9 -42 118 -29 147 -38 279 -32 498 4 176 10 241 31 355 65 344 193 583 350 656 51 24 143 22 199 -5z"/> <path d="M1015 1340 c-28 -11 -90 -81 -115 -129 -11 -22 -20 -42 -20 -45 0 -2 19 -2 41 1 36 5 44 3 60 -18 10 -13 19 -38 19 -56 0 -68 -87 -100 -129 -46 -12 14 -24 24 -27 20 -3 -3 -8 -81 -11 -174 -4 -128 -2 -187 10 -248 47 -247 163 -374 285 -311 163 84 229 542 120 833 -49 133 -150 207 -233 173z m130 -69 c74 -69 114 -190 130 -395 9 -111 -23 -312 -51 -323 -9 -3 -10 -12 -4 -29 11 -29 -5 -71 -30 -79 -10 -3 -29 0 -44 6 -29 14 -46 5 -28 -13 33 -33 -6 -96 -53 -84 -52 13 -51 84 1 100 47 14 59 22 62 42 2 10 14 28 26 39 34 30 55 95 67 208 20 186 -15 348 -90 428 -44 45 -82 51 -118 17 -22 -21 -23 -21 -43 -3 -29 26 -25 49 15 89 54 54 100 54 160 -3z m-47 -106 c67 -47 108 -205 99 -375 -6 -109 -25 -184 -56 -216 -10 -11 -26 -32 -35 -47 -36 -54 -96 -27 -132 58 -31 75 -43 148 -41 261 l2 111 54 51 54 51 -7 52 c-5 38 -4 54 6 60 19 12 31 11 56 -6z m-191 -302 c0 -91 4 -169 13 -203 17 -75 63 -163 96 -188 l28 -19 -22 -12 c-12 -6 -22 -18 -22 -26 0 -31 -27 -13 -57 38 -53 88 -92 257 -87 373 1 27 3 70 3 97 1 33 7 53 21 67 11 11 22 20 24 20 2 0 4 -66 3 -147z"/> <path d="M2032 2155 c-179 -91 -320 -379 -388 -791 -53 -328 -51 -638 7 -986 l22 -127 46 0 c45 1 85 -12 256 -81 145 -59 211 -53 425 39 69 29 109 40 147 41 l52 0 10 52 c48 229 66 460 57 703 -19 482 -135 873 -318 1071 -63 68 -117 96 -196 101 -58 4 -74 1 -120 -22z m193 -39 c97 -45 193 -176 262 -356 45 -119 41 -129 -14 -32 -143 253 -331 328 -508 201 -50 -36 -119 -121 -167 -207 -17 -29 -32 -51 -35 -49 -8 9 40 134 83 215 51 98 90 149 145 193 79 62 153 73 234 35z m-14 -178 c55 -18 118 -68 165 -132 217 -288 301 -890 198 -1416 l-17 -85 -44 -2 c-30 -1 -81 -19 -162 -57 -154 -72 -202 -83 -278 -61 -31 9 -91 34 -133 55 -81 41 -172 71 -204 67 -18 -2 -23 12 -43 123 -29 154 -42 514 -24 678 29 268 105 514 204 662 99 148 220 209 338 168z"/> <path d="M2224 1308 c-37 -34 -94 -120 -94 -142 0 -2 19 -2 41 1 36 5 44 3 60 -18 26 -34 24 -81 -4 -107 -33 -31 -80 -29 -106 5 -12 14 -24 23 -27 20 -4 -3 -9 -84 -11 -179 -5 -140 -2 -189 12 -258 29 -141 94 -264 158 -297 158 -82 297 155 297 506 0 294 -104 511 -245 511 -28 0 -45 -9 -81 -42z m152 -15 c35 -22 89 -118 113 -198 39 -134 46 -287 20 -438 -14 -81 -25 -107 -46 -107 -11 0 -14 -3 -7 -8 30 -20 19 -86 -16 -97 -22 -7 -87 20 -71 29 6 4 11 18 11 32 0 16 8 27 23 33 51 20 87 233 67 395 -15 116 -42 187 -89 237 -44 45 -86 52 -116 19 -22 -25 -34 -25 -51 -2 -19 25 -17 43 11 75 51 57 96 66 151 30z m-11 -147 c20 -21 41 -62 56 -108 20 -62 24 -92 24 -203 0 -136 -23 -251 -51 -262 -8 -3 -23 -20 -35 -39 -22 -36 -59 -45 -90 -21 -52 39 -94 207 -87 352 l4 93 53 50 54 51 -7 52 c-5 38 -4 54 6 60 23 15 40 9 73 -25z m-208 -283 c-2 -160 8 -220 51 -311 13 -29 38 -63 55 -76 30 -24 30 -24 8 -35 -11 -7 -21 -21 -21 -31 0 -38 -38 1 -74 75 -48 99 -68 196 -68 345 -1 137 4 166 30 173 9 3 18 5 19 6 1 0 1 -65 0 -146z m205 -420 c10 -9 18 -26 18 -39 0 -23 -33 -54 -57 -54 -18 0 -53 37 -53 55 0 20 36 55 57 55 9 0 25 -7 35 -17z"/> </g> </svg> 