 <svg version="1.0" xmlns="http://www.w3.org/2000/svg"  width="223.000000pt" height="250.000000pt" viewBox="0 0 223.000000 250.000000"  preserveAspectRatio="xMidYMid meet">  <g transform="translate(75.000000,90.000000) scale(0.025000,-0.020000)" fill="#000000" stroke="none"> <path d="M1412 2489 c-80 -17 -130 -115 -106 -206 6 -21 12 -23 71 -23 141 0 275 -60 514 -229 16 -11 20 -11 25 3 4 10 -20 52 -69 118 -196 268 -317 362 -435 337z m63 -19 c-3 -5 5 -12 19 -16 13 -3 27 -12 30 -20 3 -8 12 -14 20 -14 30 0 236 -222 236 -254 0 -8 -93 43 -101 56 -7 10 -9 10 -9 -1 0 -12 -3 -12 -17 1 -39 32 -128 64 -235 81 -78 14 -75 10 -69 75 2 26 83 102 108 102 13 0 21 -4 18 -10z"/> <path d="M476 2444 c-108 -39 -206 -152 -297 -339 -54 -111 -139 -339 -139 -371 0 -32 29 -10 77 59 144 206 326 342 530 398 43 12 81 23 85 25 10 6 -16 105 -42 158 -13 27 -36 56 -54 67 -37 23 -104 24 -160 3z m151 -46 c25 -23 66 -112 61 -135 -2 -8 -33 -25 -73 -39 -84 -29 -226 -99 -254 -125 -11 -10 -24 -19 -28 -19 -5 0 -48 -40 -96 -90 -97 -99 -115 -114 -98 -81 7 11 9 21 7 21 -15 0 114 266 153 317 41 52 124 133 138 133 7 0 13 4 13 9 0 4 19 13 43 19 86 23 98 22 134 -10z"/> <path d="M1570 1927 c-166 -39 -315 -191 -396 -405 l-31 -83 -28 41 c-41 59 -166 174 -227 210 -119 68 -285 90 -409 54 -207 -61 -375 -257 -444 -519 -20 -76 -32 -225 -18 -225 7 0 7 -17 1 -52 -13 -70 -4 -205 21 -300 71 -273 232 -493 436 -593 190 -94 430 -59 588 85 62 57 147 177 173 247 l17 43 36 -62 c47 -80 143 -176 212 -211 279 -140 573 85 691 530 21 81 23 108 23 333 -1 235 -2 249 -28 345 -57 209 -182 410 -307 496 -93 64 -210 89 -310 66z m230 -69 c36 -17 69 -30 73 -29 5 1 6 -3 2 -9 -3 -5 0 -10 8 -10 7 0 19 -12 25 -26 7 -15 17 -22 24 -18 7 4 8 3 4 -5 -6 -8 -12 -9 -20 -2 -7 6 -16 8 -19 4 -4 -3 -7 -2 -7 4 0 15 -106 69 -174 88 -63 18 -157 16 -196 -5 -13 -7 -20 -7 -20 -1 0 27 109 52 190 45 25 -3 74 -19 110 -36z m-95 -43 c218 -57 363 -237 460 -570 21 -74 25 -107 25 -224 0 -314 -90 -579 -250 -742 -93 -93 -159 -123 -270 -124 -74 0 -92 4 -139 28 -68 35 -124 83 -173 149 -59 78 -91 145 -79 166 43 80 58 373 27 535 -19 99 -66 239 -103 309 l-26 48 18 47 c72 195 188 323 340 375 62 22 95 22 170 3z m-984 -106 c19 -7 39 -16 44 -22 7 -7 3 -8 -10 -3 -73 27 -236 24 -270 -4 -6 -5 -24 -11 -40 -14 -15 -3 -31 -10 -35 -16 -4 -7 -11 -11 -16 -11 -5 0 -19 -9 -31 -19 -13 -11 -23 -17 -23 -13 0 4 -8 -2 -19 -13 -10 -10 -29 -28 -42 -40 -42 -36 -78 -82 -71 -90 4 -4 2 -4 -5 -1 -6 4 -14 1 -16 -5 -3 -7 -6 -8 -6 -2 -1 5 8 20 19 32 11 12 20 24 20 28 0 9 111 114 121 114 4 0 15 8 25 18 10 9 20 17 23 17 3 1 16 6 28 13 64 36 237 53 304 31z m79 -79 c191 -65 366 -247 431 -448 82 -258 76 -534 -16 -754 -93 -220 -246 -356 -436 -388 -310 -52 -645 258 -705 654 -38 244 6 495 117 683 44 73 151 187 206 220 115 67 266 80 403 33z"/> <path d="M1535 1346 c-34 -15 -95 -64 -95 -76 0 -4 17 -6 38 -3 32 4 41 0 66 -26 52 -54 63 -142 26 -210 -15 -29 -75 -54 -107 -46 -16 4 -22 2 -18 -5 3 -5 14 -10 24 -10 12 0 22 -15 34 -53 9 -29 33 -72 52 -94 43 -50 86 -67 135 -53 28 8 37 7 46 -5 6 -8 14 -11 18 -7 4 4 12 7 18 7 15 0 45 44 52 77 5 20 1 33 -14 48 -14 14 -20 33 -20 65 0 122 -85 240 -170 237 -20 0 -29 6 -37 29 -7 16 -23 33 -39 39 -25 10 -26 12 -11 27 9 10 39 18 71 21 46 4 62 0 100 -22 105 -61 167 -190 167 -349 1 -215 -145 -343 -289 -255 -74 45 -148 176 -156 274 -2 23 -12 55 -23 71 -11 15 -23 35 -27 43 -3 8 -4 -23 -2 -70 8 -144 65 -267 157 -340 182 -144 389 5 389 279 0 177 -81 335 -202 395 -58 29 -133 34 -183 12z m150 -218 c32 -25 64 -91 65 -130 0 -22 -9 -33 -40 -53 -48 -30 -60 -51 -60 -104 0 -23 -3 -41 -7 -41 -19 0 -73 48 -87 77 -23 49 -20 68 19 108 41 40 53 68 57 125 2 46 13 49 53 18z m96 -226 c28 -23 30 -73 4 -102 -22 -25 -46 -25 -73 -2 -32 26 -37 63 -12 95 25 32 49 34 81 9z"/> <path d="M565 1237 c-27 -14 -68 -43 -90 -66 l-39 -41 34 6 c19 3 52 18 73 32 91 61 194 60 283 -3 104 -74 154 -174 161 -320 4 -75 1 -99 -17 -148 -43 -114 -120 -171 -230 -171 -47 0 -76 6 -105 21 -92 49 -181 178 -193 279 -3 30 -13 51 -33 70 l-29 28 0 -30 c0 -48 28 -151 56 -206 36 -72 116 -153 183 -185 108 -54 248 -28 327 59 108 120 125 322 42 488 -36 72 -111 150 -176 182 -71 34 -181 37 -247 5z"/> <path d="M566 1131 c67 -41 96 -109 74 -175 -12 -37 -71 -96 -95 -96 -20 0 -19 -9 5 -73 18 -47 56 -94 112 -136 30 -22 90 -31 131 -19 27 8 44 8 62 0 23 -11 29 -8 63 24 27 26 29 30 8 15 -41 -30 -81 -27 -117 8 -32 33 -36 58 -14 100 34 66 127 53 159 -22 8 -18 15 -26 15 -19 2 25 -28 82 -43 82 -10 0 -18 14 -22 38 -25 133 -122 232 -230 232 -36 0 -47 4 -51 19 -5 20 -42 41 -71 41 -11 0 -6 -7 14 -19z m190 -96 c34 -17 104 -118 104 -149 0 -16 -9 -25 -33 -34 -63 -23 -95 -99 -72 -172 7 -22 5 -23 -26 -16 -68 13 -149 94 -149 148 0 20 8 31 28 42 41 21 76 90 75 148 -1 43 1 48 22 48 12 0 35 -7 51 -15z"/> </g> </svg> 