 <svg version="1.0" xmlns="http://www.w3.org/2000/svg"  width="300.000000pt" height="263.000000pt" viewBox="0 0 300.000000 263.000000"  preserveAspectRatio="xMidYMid meet">  <g transform="translate(60.000000,100.000000) scale(0.030000,-0.030000)" fill="#000000" stroke="none"> <path d="M1594 2331 c-78 -36 -111 -118 -99 -247 7 -75 7 -75 28 -59 12 8 51 30 86 47 87 43 211 49 356 18 227 -48 446 -79 445 -63 -2 21 -308 197 -434 248 -177 73 -304 91 -382 56z m241 -48 c125 -38 395 -171 395 -193 0 -12 -25 -8 -180 25 -97 22 -153 28 -250 29 -114 0 -131 -2 -191 -27 -36 -15 -68 -27 -70 -27 -10 0 -9 67 1 111 13 54 44 88 92 99 43 11 139 3 203 -17z"/> <path d="M758 2140 c-20 -11 -59 -42 -87 -70 -50 -50 -226 -289 -218 -296 2 -3 58 22 123 54 239 118 321 139 428 108 32 -10 60 -15 62 -13 8 8 -68 131 -105 170 -20 21 -48 45 -63 53 -37 19 -96 17 -140 -6z m175 -80 c61 -63 62 -79 3 -73 -55 7 -132 -11 -211 -47 -33 -15 -77 -35 -98 -44 -21 -10 -41 -15 -44 -13 -8 9 57 98 114 155 97 98 157 103 236 22z"/> <path d="M1763 1885 c-153 -43 -299 -165 -369 -311 l-39 -80 -50 55 c-64 70 -145 122 -234 151 -92 29 -235 25 -324 -9 -165 -64 -305 -236 -358 -440 -28 -106 -28 -277 0 -386 60 -230 220 -416 410 -476 173 -54 358 -9 498 124 50 48 133 162 133 185 0 27 20 18 46 -21 69 -104 194 -210 316 -267 223 -105 481 -65 647 101 90 90 150 194 187 330 27 96 25 326 -4 432 -76 280 -269 505 -510 595 -85 32 -266 41 -349 17z m322 -96 c88 -30 159 -74 237 -147 161 -152 249 -359 250 -587 0 -187 -55 -335 -167 -454 -104 -109 -220 -161 -365 -161 -157 0 -296 63 -425 194 -237 241 -301 617 -152 901 41 78 155 192 229 228 121 59 264 69 393 26z m-1020 -159 c81 -28 144 -71 211 -142 l56 -61 -9 -46 c-4 -25 -8 -111 -7 -191 1 -127 4 -156 28 -233 14 -49 35 -106 46 -127 l20 -38 -37 -73 c-97 -194 -300 -309 -493 -278 -199 31 -374 208 -436 439 -23 87 -23 263 0 348 52 193 173 340 329 398 83 31 209 33 292 4z"/> <path d="M1735 1516 c-146 -68 -195 -328 -101 -531 71 -152 190 -218 296 -163 245 126 156 687 -112 705 -32 2 -65 -2 -83 -11z m126 -30 c69 -29 140 -127 169 -234 17 -63 14 -200 -6 -258 -20 -60 -70 -129 -105 -144 -38 -16 -104 -15 -143 4 -49 23 -112 98 -137 165 -30 76 -37 216 -15 290 32 110 106 189 177 191 15 0 42 -6 60 -14z"/> <path d="M1733 1365 c-118 -51 -133 -301 -24 -418 81 -88 177 -72 228 39 23 51 25 65 21 150 -3 59 -1 95 5 97 45 15 -24 133 -71 120 -9 -2 -37 3 -61 12 -52 18 -57 18 -98 0z m36 -52 c-17 -43 -12 -83 13 -110 31 -34 76 -52 116 -46 35 6 35 4 32 -57 -4 -97 -45 -164 -107 -176 -45 -8 -92 28 -127 98 -21 43 -26 66 -26 131 0 87 16 135 58 167 37 30 54 27 41 -7z m160 -9 c27 -35 26 -55 -4 -84 -35 -33 -81 -31 -112 4 -28 33 -29 46 -2 80 16 20 29 26 59 26 30 0 43 -6 59 -26z"/> <path d="M644 1411 c-51 -31 -93 -92 -116 -164 -29 -96 -23 -228 14 -308 104 -227 338 -84 338 206 0 200 -121 336 -236 266z m91 -21 c34 -13 61 -43 87 -100 18 -37 22 -64 22 -150 0 -123 -20 -180 -84 -242 -33 -33 -45 -38 -83 -38 -37 0 -50 6 -77 33 -69 68 -91 166 -66 287 18 87 71 172 126 202 40 21 41 21 75 8z"/> <path d="M650 1303 c-79 -29 -131 -180 -100 -292 15 -56 67 -111 106 -111 67 0 134 103 134 205 0 32 6 51 20 65 11 11 20 28 20 38 0 20 -56 79 -66 69 -3 -3 -23 3 -42 14 -38 20 -47 21 -72 12z m-1 -59 c-13 -15 -6 -62 12 -92 8 -12 33 -31 56 -42 40 -19 42 -22 36 -52 -18 -96 -91 -150 -136 -100 -42 46 -60 147 -36 209 15 42 50 90 65 90 10 0 11 -4 3 -13z m135 -6 c21 -30 20 -51 -4 -73 -40 -36 -100 -13 -100 39 0 52 75 76 104 34z"/> </g> </svg> 