 <svg version="1.0" xmlns="http://www.w3.org/2000/svg"  width="300.000000pt" height="300.000000pt" viewBox="0 0 300.000000 300.000000"  preserveAspectRatio="xMidYMid meet">  <g transform="translate(60.000000,100.000000) scale(0.030000,-0.030000)" fill="#000000" stroke="none"> <path d="M692 2329 c-103 -13 -203 -68 -297 -163 -78 -78 -167 -217 -150 -234 4 -4 13 2 21 13 120 169 285 283 443 307 140 22 303 -34 429 -147 71 -65 80 -56 22 22 -114 151 -286 225 -468 202z"/> <path d="M2120 2260 c-53 -13 -126 -46 -178 -82 -64 -43 -142 -109 -142 -120 0 -4 37 12 83 36 292 158 497 129 795 -110 42 -34 79 -60 81 -58 8 8 -86 119 -151 178 -75 68 -183 131 -261 152 -57 15 -171 17 -227 4z"/> <path d="M780 1953 c-14 -2 -52 -10 -86 -18 -77 -19 -201 -19 -234 0 -42 24 -46 17 -10 -20 57 -59 141 -84 169 -51 15 18 66 30 82 20 14 -9 -49 -37 -68 -30 -7 3 -13 2 -13 -3 0 -14 -113 -41 -173 -41 -32 0 -74 7 -94 15 -20 8 -38 13 -40 11 -7 -6 98 -83 128 -95 15 -5 36 -7 48 -4 12 3 21 1 21 -6 0 -16 -45 -25 -130 -25 -60 -1 -82 3 -113 22 -59 34 -67 25 -17 -19 67 -61 114 -82 172 -77 26 3 48 4 48 2 0 -1 -9 -22 -19 -47 -39 -90 -54 -190 -48 -320 2 -67 12 -149 21 -182 22 -79 79 -193 122 -243 l34 -40 -88 4 c-72 2 -78 2 -37 -5 89 -15 139 -32 220 -76 52 -29 102 -47 142 -54 317 -51 581 296 541 710 -10 103 -30 173 -84 287 -100 209 -289 318 -494 285z m272 -121 c167 -82 268 -284 268 -537 0 -302 -154 -537 -382 -585 -205 -42 -411 134 -479 410 -18 72 -21 103 -16 210 6 137 22 202 76 309 82 160 206 234 386 228 68 -2 91 -7 147 -35z m-498 -67 c-9 -14 -24 -25 -32 -23 -28 6 -23 25 10 35 18 6 34 11 36 12 1 1 -5 -10 -14 -24z"/> <path d="M1010 1495 c0 -3 7 -13 15 -21 25 -26 37 -89 25 -135 -28 -105 -137 -124 -177 -31 l-16 37 -9 -40 c-29 -125 42 -282 142 -315 61 -20 107 -6 162 50 52 54 78 121 78 201 0 94 -54 200 -119 233 -32 17 -101 31 -101 21z m113 -80 c46 -46 62 -89 61 -170 0 -100 -30 -166 -94 -206 -73 -47 -190 39 -202 147 -2 24 1 29 17 27 11 -1 39 -3 63 -4 27 -2 42 -7 42 -16 0 -7 5 -13 12 -13 6 0 8 -3 5 -7 -12 -12 43 -40 69 -35 34 6 74 57 74 94 0 22 -11 40 -40 68 -37 36 -41 43 -38 85 3 48 8 53 31 30z m-11 -142 c36 -32 14 -103 -32 -103 -38 0 -53 69 -23 102 20 22 31 23 55 1z"/> <path d="M2050 1947 c-177 -41 -308 -184 -382 -420 -20 -63 -23 -93 -23 -232 1 -147 3 -167 28 -240 70 -211 219 -357 388 -384 87 -14 156 -1 262 49 56 27 102 42 145 46 43 5 60 10 53 17 -7 7 -28 7 -66 0 -30 -5 -55 -8 -55 -5 0 2 20 26 44 52 50 56 108 168 132 255 9 33 19 115 21 182 6 130 -9 230 -48 320 -10 25 -19 46 -19 47 0 2 22 1 48 -2 58 -5 105 16 172 77 50 44 42 53 -17 19 -31 -19 -53 -23 -113 -22 -85 0 -130 9 -130 25 0 7 9 9 21 6 12 -3 33 -1 48 4 30 12 135 89 128 95 -2 2 -20 -3 -40 -11 -20 -8 -62 -15 -94 -15 -60 0 -173 27 -173 41 0 5 -6 6 -13 3 -18 -7 -82 21 -68 30 16 11 79 -4 85 -20 7 -19 60 -18 100 1 34 16 108 85 90 85 -5 -1 -20 -7 -34 -15 -34 -19 -160 -19 -234 0 -83 22 -191 27 -256 12z m225 -107 c80 -30 153 -101 204 -200 65 -126 76 -175 75 -345 0 -136 -2 -157 -27 -231 -81 -243 -278 -392 -464 -354 -171 36 -310 187 -363 396 -27 106 -27 272 0 380 47 186 142 306 288 365 64 26 202 21 287 -11z m222 -84 c-7 -21 -34 -17 -50 7 l-16 25 35 -11 c19 -6 33 -15 31 -21z"/> <path d="M1915 1485 c-156 -55 -195 -318 -66 -447 54 -54 101 -68 161 -48 100 33 171 190 142 315 l-9 40 -16 -37 c-39 -91 -146 -74 -177 29 -13 44 -1 111 25 137 30 30 6 34 -60 11z m-9 -101 c1 -41 -3 -50 -37 -84 -29 -27 -39 -46 -39 -68 0 -34 38 -87 69 -95 23 -6 83 22 75 34 -3 5 0 9 5 9 6 0 11 7 11 15 0 11 12 15 44 15 24 0 51 3 60 6 22 8 22 -46 0 -89 -42 -83 -107 -119 -170 -92 -41 17 -54 30 -86 90 -33 59 -32 185 1 238 25 40 48 67 59 67 4 0 8 -21 8 -46z m43 -126 c31 -54 -21 -114 -63 -73 -21 21 -21 63 1 87 22 24 44 19 62 -14z"/> </g> </svg> 