<?xml version="1.0" standalone="no"?>
<!DOCTYPE svg PUBLIC "-//W3C//DTD SVG 20010904//EN"
 "http://www.w3.org/TR/2001/REC-SVG-20010904/DTD/svg10.dtd">
<svg version="1.0" xmlns="http://www.w3.org/2000/svg"
 width="270.000000pt" height="187.000000pt" viewBox="0 0 270.000000 187.000000"
 preserveAspectRatio="xMidYMid meet">
<metadata>
Created by potrace 1.10, written by Peter Selinger 2001-2011
</metadata>
<g transform="translate(60.000000,135.000000) scale(0.030000,-0.030000)"
fill="#000000" stroke="none">
<path d="M2522 1823 c-68 -40 -76 -52 -17 -27 89 37 153 11 177 -70 10 -33 13
-37 16 -18 4 29 -15 121 -30 139 -20 25 -80 15 -146 -24z"/>
<path d="M38 1770 c-22 -14 -40 -78 -34 -125 6 -44 16 -59 16 -22 0 62 87 117
154 98 49 -13 45 1 -8 26 -55 27 -106 36 -128 23z"/>
<path d="M2525 1653 c-67 -58 -284 -197 -415 -266 -237 -124 -458 -200 -666
-228 -123 -16 -370 -6 -499 21 -284 60 -567 202 -758 381 l-77 71 0 -34 c0
-70 33 -227 72 -342 153 -456 499 -847 868 -980 152 -55 311 -68 498 -40 246
36 424 125 597 299 186 186 317 447 380 759 24 117 50 350 43 380 -2 10 -14 4
-43 -21z m-10 -81 c6 -4 8 -20 4 -37 -5 -25 -7 -27 -14 -12 -5 12 -14 16 -29
12 -16 -5 -14 -2 8 13 25 18 26 21 10 25 -12 3 -13 5 -4 6 8 0 20 -3 25 -7z
m-2338 -39 c-4 -3 1 -15 10 -26 11 -12 12 -17 4 -12 -10 6 -12 4 -7 -4 5 -7
15 -10 24 -6 9 3 13 3 9 -1 -4 -5 3 -14 15 -21 23 -14 23 -14 1 -8 -19 5 -24
1 -32 -27 -5 -18 -10 -25 -10 -15 -1 10 -7 28 -14 40 -8 12 -13 36 -11 52 2
35 2 35 11 35 3 0 3 -3 0 -7z m2307 -40 c-20 -92 -65 -267 -69 -272 -16 -15
-27 29 -29 120 l-3 104 46 37 c56 45 63 46 55 11z m-2216 -158 c1 -30 1 -55
-2 -55 -5 0 -46 134 -46 152 1 7 11 1 23 -14 16 -19 23 -43 25 -83z m2090 -80
c-3 -95 -8 -130 -25 -167 -27 -59 -49 -71 -114 -62 -81 11 -88 23 -88 157 l0
114 38 18 c22 9 72 39 113 66 l73 48 3 -27 c2 -15 2 -81 0 -147z m-2015 129
c-4 -12 6 -18 28 -16 3 1 6 -5 6 -13 0 -11 -5 -10 -24 2 -13 9 -22 22 -19 29
3 7 1 16 -4 19 -6 4 -10 1 -10 -6 0 -7 -3 -10 -6 -6 -3 3 -3 11 1 17 10 16 35
-7 28 -26z m61 -89 l127 -85 4 -57 c2 -32 6 -86 10 -119 7 -60 6 -63 -19 -79
-15 -10 -43 -18 -64 -19 l-37 -1 -63 127 c-59 118 -64 133 -69 210 -3 46 -10
89 -16 96 -18 22 0 13 127 -73z m1698 27 c-12 -2 -20 -8 -17 -13 4 -5 -3 -9
-14 -9 -11 0 -26 -7 -34 -15 -13 -13 -16 -13 -27 1 -11 12 -10 13 4 8 9 -3 16
-1 16 6 0 6 4 9 8 6 10 -6 37 10 38 24 1 5 2 12 3 15 0 3 11 0 24 -7 l22 -13
-23 -3z m9 -187 c2 -141 -5 -176 -39 -217 -12 -15 -31 -18 -98 -18 -72 0 -86
3 -108 23 -28 24 -46 93 -46 177 l0 48 58 21 c31 13 95 42 142 66 47 23 86 42
87 41 1 -1 3 -65 4 -141z m-191 105 c8 -16 8 -18 -4 -14 -8 3 -17 1 -21 -5 -3
-6 -15 -11 -26 -11 -10 0 -18 -5 -16 -12 1 -7 -5 -13 -13 -13 -8 -1 -22 -4
-30 -6 -64 -23 -121 -39 -141 -39 -20 0 -21 -2 -9 -11 12 -9 11 -10 -7 -6 -13
3 -23 1 -23 -4 0 -5 -8 -9 -17 -9 -15 0 -16 2 -3 10 9 6 10 10 3 10 -7 0 -17
-8 -23 -17 -8 -13 -13 -14 -16 -6 -4 9 -14 9 -42 -2 -89 -34 -344 -41 -497
-14 -38 7 -89 13 -111 13 -30 0 -40 4 -37 13 3 7 1 13 -5 13 -6 0 -12 -5 -14
-10 -2 -6 -19 -2 -42 10 -21 10 -42 18 -45 15 -4 -2 -8 5 -8 16 -1 11 5 19 13
19 8 0 12 -4 9 -10 -3 -5 4 -10 17 -11 26 -1 28 -1 198 -29 104 -17 154 -20
295 -16 111 3 193 10 235 21 36 9 78 16 93 16 15 0 25 4 22 9 -4 6 9 10 30 10
20 0 57 9 83 19 26 10 61 24 79 31 18 7 38 18 44 26 15 18 16 18 29 -6z
m-1274 -19 c-3 -4 22 -13 55 -20 32 -8 59 -16 59 -20 0 -9 -64 -7 -71 2 -4 5
-18 10 -32 10 -14 1 -23 6 -20 11 3 5 0 7 -8 4 -8 -3 -20 2 -28 10 -12 12 -12
15 -1 22 15 9 53 -6 46 -19z m1819 -21 c3 -5 1 -10 -5 -10 -7 0 -10 -7 -7 -15
4 -8 2 -17 -3 -20 -5 -3 -7 -12 -3 -20 3 -8 0 -15 -7 -15 -7 0 -9 -8 -5 -21 5
-13 3 -19 -3 -15 -5 3 -13 -1 -16 -10 -3 -9 -2 -12 5 -9 5 4 1 -10 -10 -31
-12 -21 -21 -42 -21 -47 0 -4 -14 -36 -30 -70 -17 -34 -23 -53 -15 -43 8 11
15 15 15 9 0 -7 -5 -15 -11 -18 -6 -4 -8 -14 -4 -22 4 -13 3 -14 -9 -4 -12 10
-16 8 -21 -8 -3 -11 -22 -44 -42 -72 -19 -28 -29 -48 -21 -43 7 4 1 -5 -14
-21 -16 -15 -28 -32 -28 -37 0 -6 -7 -8 -15 -5 -8 4 -17 1 -21 -5 -4 -6 -3 -8
4 -4 17 10 23 -10 7 -24 -8 -7 -15 -9 -15 -4 0 4 -6 -1 -14 -11 -8 -11 -12
-24 -8 -29 3 -5 -2 -6 -12 -3 -14 5 -17 3 -13 -8 4 -9 -6 -23 -25 -37 -19 -13
-29 -16 -24 -7 4 7 1 6 -8 -5 -8 -10 -19 -15 -25 -12 -5 4 -13 1 -17 -5 -4 -8
-3 -9 4 -5 7 4 12 3 12 -2 0 -12 -28 -24 -33 -14 -6 11 19 53 27 44 12 -11
-16 51 -28 65 -22 24 -131 59 -178 57 -26 -1 -45 2 -43 6 3 5 -67 8 -155 7
-88 0 -155 -4 -148 -9 7 -4 -11 -6 -40 -3 -34 3 -51 1 -47 -5 4 -7 -3 -7 -19
0 -17 6 -26 6 -26 -1 0 -6 -6 -6 -19 1 -11 5 -28 7 -38 4 -15 -5 -16 -4 -3 5
11 9 -5 10 -65 7 -53 -2 -73 -1 -60 5 14 7 7 7 -20 3 -22 -4 -65 -8 -96 -9
-59 -3 -92 -11 -176 -43 -93 -36 -111 -45 -106 -59 4 -9 0 -11 -11 -7 -11 4
-16 1 -16 -11 0 -16 -2 -16 -25 -1 -23 15 -24 15 -18 -1 3 -10 4 -16 2 -13
-34 40 -42 52 -30 45 10 -5 12 -4 7 3 -4 7 -12 12 -18 12 -6 0 -17 8 -25 17
-8 10 -12 12 -8 6 11 -23 -1 -13 -25 19 l-23 33 23 -20 23 -20 -14 22 c-8 13
-17 23 -22 23 -20 0 -76 46 -72 60 3 8 -12 33 -33 56 -20 22 -48 60 -61 83
l-23 43 31 -7 c33 -7 101 10 101 26 0 22 43 -22 46 -46 4 -34 17 -49 60 -70
30 -14 45 -15 106 -5 73 11 108 24 108 40 0 6 5 10 12 10 6 0 9 -3 5 -6 -8 -8
25 -44 40 -44 7 0 13 -5 13 -11 0 -5 -6 -7 -12 -3 -9 6 -9 3 1 -9 11 -13 17
-14 35 -5 20 11 20 10 6 -7 -11 -14 -11 -17 -1 -11 8 5 16 4 20 -3 15 -23 129
-34 230 -22 53 6 98 16 99 21 2 6 11 10 21 10 9 0 23 6 30 13 11 10 12 9 6 -2
-6 -11 -4 -13 8 -8 10 4 17 1 17 -5 0 -6 3 -8 7 -5 3 4 13 1 21 -6 10 -8 49
-12 111 -12 113 0 175 10 164 28 -4 7 2 5 12 -3 17 -14 18 -13 12 3 -4 11 -1
17 9 17 8 0 12 -5 8 -11 -14 -23 34 11 62 43 15 18 31 32 35 31 4 -1 6 8 5 20
-3 22 -1 23 38 12 23 -7 49 -15 59 -20 10 -4 35 -3 55 3 21 6 48 9 61 5 17 -4
22 -3 17 5 -4 8 0 12 11 12 25 0 75 55 77 84 0 13 4 22 9 19 4 -2 7 0 7 4 0
11 34 10 73 -1 20 -6 33 -4 46 8 10 9 21 16 25 16 10 0 61 40 62 48 0 4 6 20
13 37 7 16 10 37 8 47 -3 10 -1 16 4 12 5 -3 9 1 9 9 0 8 7 18 16 21 8 3 12
10 9 16 -3 5 3 10 14 10 11 0 23 -4 26 -10z m-1838 -28 c32 -15 98 -41 146
-57 l87 -30 2 -50 c5 -126 -5 -159 -57 -181 -50 -21 -142 -29 -159 -14 -8 6
-21 8 -27 4 -7 -4 -9 -3 -6 3 3 5 -2 32 -12 59 -24 63 -53 294 -37 294 2 0 31
-12 63 -28z m1175 -128 c3 -53 1 -115 -4 -138 -20 -92 -100 -130 -270 -131
-136 0 -143 5 -157 125 -17 135 -17 140 22 140 52 0 256 46 327 73 36 14 68
25 71 26 4 0 9 -42 11 -95z m-782 11 c52 -8 145 -15 206 -15 l111 0 7 -105 c4
-58 4 -110 0 -116 -28 -45 -229 -74 -325 -46 -95 28 -121 73 -133 231 -6 77
-6 78 17 73 12 -4 65 -13 117 -22z m-664 -60 c-1 -8 -6 -18 -11 -22 -4 -4 -5
-3 -2 3 4 7 0 14 -8 18 -9 3 -12 12 -8 22 5 13 3 15 -7 9 -9 -6 -11 -4 -6 4
10 16 45 -13 42 -34z m949 -388 c40 -8 75 -10 105 -4 76 15 388 14 450 -2 63
-15 150 -50 150 -60 -1 -3 -31 -28 -68 -54 -137 -99 -311 -165 -497 -187 -171
-21 -283 -1 -469 84 -78 36 -206 120 -206 135 0 12 125 63 204 82 85 21 246
24 331 6z m700 -148 c4 -6 1 -10 -6 -8 -35 4 -48 -2 -44 -20 3 -15 0 -18 -13
-14 -11 5 -12 8 -4 11 10 3 10 7 0 20 -7 9 -8 13 -3 10 6 -3 19 -2 30 3 28 11
33 11 40 -2z"/>
<path d="M375 1250 c10 -11 35 -30 54 -42 20 -12 42 -28 49 -35 7 -7 18 -13
23 -13 5 0 -6 14 -24 30 -19 17 -39 30 -45 30 -5 0 -13 7 -16 16 -3 8 -10 12
-16 9 -5 -3 -10 -2 -10 3 0 6 -8 13 -17 16 -15 6 -14 4 2 -14z"/>
<path d="M2020 1189 c-19 -10 -40 -22 -46 -27 -5 -5 -26 -14 -45 -21 -45 -15
-88 -40 -70 -41 18 0 124 50 132 62 3 5 10 10 15 10 21 2 64 21 64 29 0 12 -8
10 -50 -12z"/>
<path d="M594 1109 c-3 -5 1 -9 10 -9 8 0 16 -4 18 -8 5 -14 187 -81 193 -72
3 5 -12 14 -32 20 -37 12 -101 39 -155 65 -16 8 -30 9 -34 4z"/>
<path d="M1703 1055 c-7 -7 -33 -17 -58 -20 -25 -4 -45 -12 -45 -17 0 -7 -16
-8 -40 -5 -22 3 -42 1 -46 -4 -3 -5 3 -6 12 -2 12 4 15 3 10 -5 -10 -16 7 -15
73 5 117 34 135 41 139 52 5 16 -31 13 -45 -4z"/>
<path d="M1418 983 c-8 -10 -4 -13 18 -12 37 2 94 16 74 19 -49 6 -83 3 -92
-7z"/>
<path d="M920 990 c0 -7 6 -10 14 -7 7 3 17 2 22 -3 11 -11 183 -30 269 -30
65 0 65 0 64 28 -1 19 -3 21 -6 8 -4 -16 -12 -18 -54 -14 -27 3 -52 1 -55 -3
-7 -12 -54 -11 -54 0 0 5 -35 11 -77 14 -43 2 -88 8 -100 12 -16 5 -23 3 -23
-5z"/>
<path d="M914 161 c66 -67 148 -112 246 -137 93 -24 283 -14 404 20 70 20 93
23 105 14 14 -11 14 -10 1 5 -14 15 -25 16 -99 7 -192 -25 -501 32 -661 120
l-55 31 59 -60z"/>
</g>
</svg>
