 <svg version="1.0" xmlns="http://www.w3.org/2000/svg"  width="225.000000pt" height="225.000000pt" viewBox="0 0 225.000000 225.000000"  preserveAspectRatio="xMidYMid meet">  <g transform="translate(60.000000,135.000000) scale(0.030000,-0.030000)" fill="#000000" stroke="none"> <path d="M546 1615 c-51 -18 -114 -80 -126 -124 -22 -80 41 -170 154 -221 108 -49 188 -64 331 -64 119 0 144 4 295 41 91 23 192 46 224 52 111 20 241 11 365 -25 73 -21 134 -80 129 -127 -2 -23 1 -32 15 -35 31 -6 23 67 -14 117 -29 41 -94 80 -132 81 -10 0 -15 5 -12 10 3 6 15 10 26 10 24 0 24 12 0 118 -10 45 -15 84 -12 86 3 2 26 7 51 11 57 9 69 16 61 36 -5 15 -19 14 -141 -12 -269 -57 -307 -61 -450 -56 -106 3 -164 11 -270 36 -199 48 -370 81 -415 80 -22 0 -57 -6 -79 -14z m219 -44 c475 -101 474 -101 584 -101 122 0 220 12 328 39 l72 18 12 -56 c21 -104 19 -113 -27 -127 -30 -9 -56 -9 -95 -2 -67 13 -165 5 -305 -24 l-107 -21 -151 22 c-223 34 -431 76 -532 109 -79 25 -89 31 -87 51 7 59 85 111 168 111 28 0 91 -9 140 -19z m-15 -231 c80 -16 200 -37 267 -46 67 -10 120 -21 117 -25 -9 -15 -183 -31 -284 -26 -115 6 -227 36 -304 81 -42 24 -86 69 -86 87 0 4 33 -3 73 -17 39 -14 137 -38 217 -54z"/> </g> </svg> 