 <svg version="1.0" xmlns="http://www.w3.org/2000/svg"  width="283.000000pt" height="178.000000pt" viewBox="0 0 283.000000 178.000000"  preserveAspectRatio="xMidYMid meet">  <g transform="translate(60.000000,135.000000) scale(0.030000,-0.030000)" fill="#000000" stroke="none"> <path d="M2141 1693 c-52 -22 -114 -67 -250 -181 -195 -162 -285 -198 -476 -189 -167 8 -215 28 -424 175 -75 53 -156 109 -180 126 -123 83 -247 99 -360 46 -108 -51 -254 -211 -306 -335 -57 -136 -75 -238 -75 -424 0 -290 65 -514 210 -728 95 -139 81 -130 133 -94 162 111 424 219 657 270 378 83 801 33 1179 -141 46 -21 85 -37 85 -36 1 2 18 30 38 63 99 165 199 392 256 580 48 156 56 210 56 355 0 115 -3 145 -23 199 -45 129 -142 234 -275 301 -51 26 -70 30 -135 29 -44 0 -91 -7 -110 -16z m236 -53 c72 -36 172 -125 206 -182 51 -89 62 -142 61 -293 -1 -123 -5 -154 -33 -258 -17 -66 -50 -167 -72 -225 -49 -127 -169 -375 -203 -416 l-23 -30 -99 41 c-423 174 -813 208 -1215 107 -182 -45 -329 -105 -522 -211 -53 -30 -102 -51 -107 -48 -5 3 -34 43 -65 89 -137 207 -195 413 -195 696 0 243 43 396 151 540 139 185 281 246 434 189 30 -11 133 -75 227 -142 254 -178 349 -218 518 -220 174 -2 279 43 475 204 215 176 235 187 341 188 48 1 73 -5 121 -29z"/> <path d="M2178 1625 c-51 -19 -101 -55 -243 -174 -185 -155 -304 -205 -490 -205 -185 1 -277 38 -534 216 -96 67 -202 133 -235 146 -112 45 -206 12 -329 -117 -103 -109 -176 -258 -193 -396 -5 -45 -3 -53 19 -73 l25 -24 344 21 c189 12 406 26 483 31 428 28 880 57 1280 80 243 15 262 18 285 43 39 41 14 177 -50 278 -85 131 -257 215 -362 174z m181 -61 c127 -73 194 -177 215 -335 l4 -37 -71 -6 c-40 -3 -148 -11 -242 -16 -214 -13 -1711 -107 -1905 -120 -80 -5 -152 -10 -161 -10 -14 0 -15 7 -7 53 37 207 168 405 313 473 100 47 144 31 402 -149 98 -68 205 -135 238 -150 188 -82 384 -86 567 -12 84 34 140 72 283 194 149 126 201 155 269 147 26 -3 69 -17 95 -32z"/> <path d="M2375 1099 c-268 -21 -327 -26 -280 -27 96 -3 427 18 443 28 20 11 0 11 -163 -1z"/> <path d="M1800 1060 l-85 -6 70 -1 c39 0 113 3 165 7 l95 7 -80 0 c-44 -1 -118 -4 -165 -7z"/> <path d="M2560 1003 c-14 -74 -76 -271 -117 -367 -14 -34 -51 -114 -84 -179 -32 -65 -59 -121 -59 -125 0 -30 96 155 155 298 55 134 114 323 122 389 8 73 -3 63 -17 -16z"/> <path d="M1480 1039 c-217 -13 -237 -17 -60 -12 158 5 348 21 240 20 -25 0 -106 -4 -180 -8z"/> <path d="M1005 1013 c-49 -2 -93 -7 -97 -11 -4 -4 37 -5 92 -2 54 3 102 8 106 13 4 4 3 6 -2 5 -5 -1 -49 -4 -99 -5z"/> <path d="M1148 1013 c17 -2 47 -2 65 0 17 2 3 4 -33 4 -36 0 -50 -2 -32 -4z"/> <path d="M560 980 c-36 -4 9 -5 100 -2 91 3 167 6 169 8 7 6 -198 1 -269 -6z"/> <path d="M378 963 c18 -2 45 -2 60 0 15 2 0 4 -33 4 -33 0 -45 -2 -27 -4z"/> <path d="M182 672 c0 -66 5 -100 28 -167 52 -154 149 -315 189 -315 10 0 65 24 122 53 147 74 210 101 333 142 59 19 118 42 131 51 13 9 57 22 97 30 52 10 59 13 23 9 -27 -3 -68 -8 -90 -11 -38 -6 -41 -4 -51 24 -25 66 -201 163 -354 194 -118 25 -316 21 -369 -7 -18 -9 -36 -14 -39 -11 -3 4 -9 25 -12 49 -5 33 -7 24 -8 -41z m375 -13 c95 -13 197 -47 266 -89 64 -39 144 -106 136 -114 -3 -4 -31 -13 -62 -21 -106 -28 -310 -114 -433 -184 l-71 -40 -51 88 c-70 120 -149 328 -131 346 8 7 136 22 206 24 34 0 97 -4 140 -10z"/> <path d="M1260 500 c-36 -4 14 -5 110 -2 96 3 177 6 179 8 7 6 -218 1 -289 -6z"/> <path d="M1569 497 c4 -4 35 -7 67 -5 l59 3 -67 5 c-37 3 -63 1 -59 -3z"/> <path d="M1730 480 c8 -5 26 -10 40 -10 61 0 366 -92 453 -137 16 -8 34 -12 40 -10 32 10 -165 82 -349 126 -139 34 -206 45 -184 31z"/> </g> </svg> 