 <svg version="1.0" xmlns="http://www.w3.org/2000/svg"  width="300.000000pt" height="144.000000pt" viewBox="0 0 300.000000 144.000000"  preserveAspectRatio="xMidYMid meet">  <g transform="translate(60.000000,135.000000) scale(0.030000,-0.030000)" fill="#000000" stroke="none"> <path d="M65 1361 c-33 -100 -55 -204 -55 -266 0 -73 19 -45 41 62 25 124 62 228 80 227 8 -1 93 -22 189 -47 624 -161 1151 -223 1663 -198 128 6 257 14 287 17 187 18 355 38 493 60 115 17 164 21 178 14 42 -23 9 -62 -66 -75 -21 -4 -55 -15 -75 -24 -19 -10 -57 -21 -85 -24 -27 -3 -102 -13 -165 -21 -63 -8 -146 -17 -185 -21 -38 -3 -88 -8 -110 -11 -22 -2 -143 -8 -270 -14 -367 -16 -730 7 -1090 69 -203 35 -398 77 -571 121 -120 31 -164 34 -77 7 63 -21 243 -66 313 -79 30 -5 73 -13 95 -18 480 -96 672 -115 1125 -114 381 0 520 9 848 56 83 12 155 19 158 15 3 -3 -8 -23 -25 -44 -16 -21 -42 -69 -57 -108 -44 -118 -69 -306 -43 -332 27 -27 -281 -226 -466 -300 -65 -26 -225 -75 -318 -98 -257 -63 -608 -72 -827 -23 -294 66 -534 182 -678 327 -67 66 -138 169 -126 181 20 18 220 50 318 50 211 0 337 -63 443 -223 42 -63 83 -165 130 -327 4 -13 6 -13 14 2 13 23 -32 174 -81 273 -43 86 -117 174 -189 224 -76 53 -184 81 -314 81 -133 0 -279 -29 -313 -61 l-22 -20 -20 43 c-43 87 -55 162 -49 303 3 71 8 144 11 160 3 17 -1 8 -10 -20 -11 -35 -15 -88 -15 -176 1 -115 4 -135 35 -231 49 -152 68 -183 175 -288 141 -138 285 -216 541 -292 166 -50 173 -51 423 -52 205 -1 263 2 378 21 355 58 627 164 882 346 38 26 72 46 75 42 11 -11 -32 -77 -75 -115 -115 -101 -368 -240 -538 -295 -139 -45 -319 -81 -515 -102 -30 -3 -66 -12 -80 -20 -22 -13 -14 -14 85 -9 245 11 448 56 664 148 239 103 457 261 503 366 19 42 19 45 2 63 -13 15 -17 34 -15 87 4 139 37 254 108 372 33 57 35 58 88 65 86 10 128 59 105 119 -17 45 -46 51 -167 32 -407 -61 -713 -87 -1043 -88 -481 -1 -895 58 -1517 216 l-172 43 -26 -76z"/> <path d="M10 922 c0 -61 32 -186 70 -269 60 -133 203 -290 350 -387 190 -126 541 -240 775 -253 122 -7 103 11 -38 37 -348 64 -596 158 -780 296 -179 135 -287 305 -342 542 -21 87 -35 101 -35 34z"/> </g> </svg> 