 <svg version="1.0" xmlns="http://www.w3.org/2000/svg"  width="225.000000pt" height="225.000000pt" viewBox="0 0 225.000000 225.000000"  preserveAspectRatio="xMidYMid meet">  <g transform="translate(83.000000,125.000000) scale(0.020000,-0.020000)"  fill="#000000" stroke="none"> <path d="M895 1561 c-27 -10 -69 -27 -92 -39 -165 -85 -381 -138 -653 -161 l-95 -7 116 -57 116 -57 7 -68 c8 -88 47 -238 86 -332 96 -232 259 -395 465 -465 222 -75 491 -52 693 61 86 48 206 168 261 261 79 134 143 327 157 475 l7 68 116 57 116 57 -95 7 c-285 24 -453 67 -680 172 -41 20 -92 38 -112 42 -44 8 -100 -8 -145 -41 -39 -29 -37 -29 -76 0 -36 26 -89 46 -121 46 -12 -1 -43 -9 -71 -19z m140 -36 c17 -9 45 -29 60 -45 l28 -29 45 39 c75 67 119 66 276 -6 133 -61 214 -88 338 -113 81 -16 249 -41 277 -41 20 0 -30 -24 -114 -55 -170 -63 -287 -86 -480 -92 l-170 -5 -62 -34 c-84 -46 -133 -46 -217 1 -62 35 -64 35 -184 35 -139 0 -238 12 -366 45 -84 21 -290 94 -284 101 2 1 59 10 128 19 213 27 341 65 534 156 89 42 138 48 191 24z m-670 -362 c51 -134 162 -267 287 -341 250 -148 696 -148 946 0 125 74 236 207 287 341 28 75 50 90 40 26 -45 -283 -127 -469 -270 -614 -88 -89 -168 -137 -295 -177 -66 -20 -95 -23 -235 -23 -140 0 -169 3 -235 23 -127 40 -207 88 -295 177 -143 145 -225 331 -270 614 -10 64 12 49 40 -26z m135 18 c109 -26 299 -44 372 -36 54 7 62 4 125 -31 58 -33 77 -38 128 -38 51 0 70 5 128 38 63 35 71 38 125 31 101 -11 340 19 474 61 15 4 14 -2 -8 -51 -129 -292 -435 -442 -829 -405 -299 29 -505 168 -615 418 -18 40 -18 43 -2 38 9 -3 55 -14 102 -25z"/> <path d="M516 1102 c-4 -7 -21 -12 -37 -12 l-30 0 35 -34 c21 -19 36 -43 36 -56 0 -22 1 -22 18 -7 10 10 27 17 38 17 15 1 14 4 -8 16 -16 8 -30 26 -34 42 -3 15 -7 31 -8 37 -1 5 -6 4 -10 -3z"/> <path d="M701 1069 c-1 -47 -30 -74 -68 -65 -21 5 -24 4 -13 -4 8 -5 22 -10 31 -10 21 0 49 -32 49 -56 0 -16 2 -15 13 6 10 18 21 24 39 23 l27 -2 -30 27 c-20 18 -32 42 -38 72 -9 44 -9 44 -10 9z"/> <path d="M1326 1063 c3 -23 3 -58 0 -77 -8 -40 -40 -56 -117 -56 -57 0 -78 22 -80 85 -1 24 -3 30 -5 15 -3 -14 -9 -42 -15 -62 -10 -37 -11 -38 -57 -39 l-47 0 47 -15 c50 -15 52 -19 62 -92 7 -55 16 -49 16 11 0 48 4 59 23 71 23 16 160 27 173 14 3 -4 12 -31 20 -60 l12 -53 1 52 c1 52 18 83 46 83 8 0 16 4 19 8 3 5 -7 7 -23 4 -36 -5 -50 13 -61 83 -5 32 -12 60 -15 63 -3 4 -3 -12 1 -35z"/> <path d="M1698 1069 c-2 -22 -10 -37 -24 -44 l-22 -11 24 -11 c20 -9 28 -6 67 31 l43 42 -30 -4 c-20 -3 -33 1 -42 13 -11 15 -13 13 -16 -16z"/> <path d="M894 1043 c-10 -69 -19 -83 -57 -83 l-32 -1 33 -14 c40 -18 44 -28 33 -87 -4 -27 -5 -45 0 -42 5 3 9 13 9 22 0 9 9 32 20 50 17 28 26 32 62 33 l43 1 -38 8 c-55 10 -62 21 -59 95 1 36 0 65 -3 65 -2 0 -7 -21 -11 -47z"/> <path d="M1537 1044 c-8 -57 -21 -73 -70 -84 l-32 -8 33 -1 c31 -1 56 -19 78 -57 10 -16 11 -14 6 14 -6 41 16 75 60 90 21 8 24 10 7 7 -36 -6 -67 19 -71 58 -3 27 -4 24 -11 -19z"/>  </g> </svg> 