 <svg version="1.0" xmlns="http://www.w3.org/2000/svg"  width="257.000000pt" height="196.000000pt" viewBox="0 0 257.000000 196.000000"  preserveAspectRatio="xMidYMid meet">  <g transform="translate(60.000000,135.000000) scale(0.030000,-0.030000)" fill="#000000" stroke="none"> <path d="M2177 1830 c-26 -5 -78 -23 -115 -40 -62 -30 -65 -33 -44 -43 18 -8 33 -5 79 19 63 32 167 44 215 25 29 -11 124 -123 134 -158 5 -20 64 -51 64 -34 0 4 -18 34 -41 67 -98 142 -173 183 -292 164z"/> <path d="M290 1791 c-45 -14 -84 -39 -116 -73 -40 -41 -116 -150 -109 -156 9 -9 55 9 55 21 0 15 51 89 93 134 44 47 116 62 188 38 30 -10 71 -27 91 -38 29 -16 42 -18 60 -10 22 10 20 12 -29 37 -56 28 -153 57 -188 55 -11 0 -31 -4 -45 -8z"/> <path d="M2156 1641 c-278 -354 -527 -502 -846 -504 -167 -2 -229 18 -425 137 -208 126 -303 195 -399 290 -126 125 -149 135 -199 96 -24 -19 -25 -22 -11 -49 8 -16 50 -143 93 -282 96 -306 154 -464 230 -624 171 -359 371 -561 599 -606 92 -17 244 1 327 41 86 41 192 154 277 295 134 224 338 726 428 1052 44 163 48 201 23 232 -18 21 -19 21 -97 -78z m54 -75 c-50 -207 -120 -409 -247 -706 -108 -254 -153 -342 -232 -461 -76 -115 -147 -186 -226 -224 -69 -34 -217 -51 -299 -35 -71 14 -175 62 -206 95 l-22 24 63 -26 c76 -31 206 -41 290 -24 190 40 346 197 500 502 69 139 279 640 279 667 0 11 -7 25 -16 32 -13 11 -23 10 -61 -9 l-45 -22 23 29 c106 131 203 241 209 237 4 -3 -1 -38 -10 -79z m-1828 40 c8 -13 2 -23 -23 -36 -16 -9 -21 -7 -30 16 -15 40 -5 58 23 43 13 -7 26 -17 30 -23z m103 -142 c193 -163 468 -338 600 -381 63 -21 106 -27 205 -30 250 -9 403 46 657 238 78 60 143 106 143 103 0 -2 -14 -32 -30 -64 -17 -33 -67 -149 -111 -258 -187 -459 -332 -687 -487 -770 -207 -111 -437 -72 -579 98 -168 200 -275 423 -430 897 -96 293 -91 273 -62 247 13 -11 56 -47 94 -80z"/> </g> </svg> 