 <svg version="1.0" xmlns="http://www.w3.org/2000/svg"  width="225.000000pt" height="225.000000pt" viewBox="0 0 225.000000 225.000000"  preserveAspectRatio="xMidYMid meet">  <g transform="translate(68.000000,150.000000) scale(0.033000,-0.030000)" fill="#000000" stroke="none"> <path d="M1270 1806 c-30 -6 -82 -26 -114 -44 l-58 -33 -52 20 c-284 115 -546 -8 -832 -389 -84 -113 -109 -150 -99 -150 4 0 55 47 114 103 260 254 325 306 439 352 118 48 208 44 353 -15 52 -21 70 -24 90 -16 13 5 51 22 84 37 102 45 133 52 215 47 132 -8 267 -86 432 -251 89 -89 208 -244 253 -329 34 -65 47 -74 39 -25 -24 142 -109 274 -287 444 -108 103 -191 165 -281 207 -114 54 -190 65 -296 42z m28 -51 c-2 -5 -15 -9 -30 -9 -16 1 -28 -2 -28 -7 0 -5 -7 -9 -15 -9 -27 0 -16 17 18 28 38 12 59 11 55 -3z m-372 -17 c6 -9 -94 -4 -104 6 -3 3 18 5 47 5 28 -1 54 -6 57 -11z m269 -17 c3 -5 1 -12 -5 -16 -5 -3 -10 -2 -10 4 0 6 -7 8 -16 4 -13 -5 -13 -8 -2 -15 9 -6 6 -7 -9 -3 -15 4 -23 1 -26 -12 -4 -16 -5 -16 -6 -1 0 10 11 24 27 32 32 18 39 19 47 7z m-163 -14 c7 -8 18 -12 24 -10 6 2 22 -1 35 -6 18 -7 20 -10 6 -10 -10 -1 -15 -5 -12 -11 3 -5 2 -10 -2 -10 -9 0 -55 29 -63 40 -3 4 -12 10 -20 13 -12 4 -12 6 2 6 9 1 23 -5 30 -12z"/> <path d="M930 1484 c-78 -16 -197 -52 -283 -85 -166 -66 -462 -222 -452 -239 3 -4 35 4 72 17 145 53 452 156 538 179 171 46 362 42 570 -12 55 -14 203 -68 330 -119 271 -109 285 -116 285 -126 0 -23 -170 -87 -300 -113 -185 -37 -327 -48 -553 -43 -256 5 -252 5 -610 112 -300 89 -378 100 -217 30 36 -16 97 -43 135 -61 334 -155 580 -204 885 -175 310 30 563 114 665 221 36 38 47 27 -142 141 -336 202 -516 267 -763 274 -74 2 -146 1 -160 -1z m230 -50 c0 -16 -26 -19 -35 -4 -6 10 -127 6 -145 -5 -4 -3 -19 -1 -32 4 l-23 10 25 0 c14 0 59 4 100 8 85 10 110 7 110 -13z m166 -31 c-2 -2 -23 0 -47 4 -38 6 -41 8 -19 13 22 6 76 -8 66 -17z m-106 -523 c15 -5 -4 -6 -45 -3 -38 3 -72 7 -74 9 -8 7 94 2 119 -6z"/> <path d="M130 1151 c0 -6 16 -44 35 -86 56 -123 140 -243 235 -335 191 -186 412 -271 628 -242 72 10 95 9 136 -3 65 -20 183 -19 265 1 218 54 469 246 619 474 69 104 82 140 25 70 -85 -106 -276 -274 -383 -337 -164 -97 -249 -126 -370 -127 -69 -1 -110 4 -149 18 -48 17 -61 17 -127 6 -237 -41 -451 43 -658 258 -81 84 -168 191 -209 260 -30 49 -47 65 -47 43z m1027 -609 c12 -7 13 -11 3 -17 -7 -4 -16 -2 -20 5 -5 8 -20 11 -39 8 -17 -2 -31 -1 -31 3 0 4 -8 10 -17 13 -10 2 6 3 35 1 29 -3 60 -8 69 -13z"/> </g> </svg> 