 <svg version="1.0" xmlns="http://www.w3.org/2000/svg"  width="258.000000pt" height="195.000000pt" viewBox="0 0 258.000000 195.000000"  preserveAspectRatio="xMidYMid meet">  <g transform="translate(60.000000,135.000000) scale(0.030000,-0.030000)" fill="#000000" stroke="none"> <path d="M1363 1645 c-63 -17 -121 -53 -163 -99 -30 -32 -33 -33 -72 -23 -81 20 -230 -21 -325 -91 -23 -17 -80 -83 -127 -145 -136 -183 -220 -247 -319 -247 -29 0 -56 -3 -60 -6 -12 -12 26 -54 89 -99 34 -25 85 -71 111 -102 89 -107 218 -229 292 -278 197 -130 484 -204 681 -175 225 33 441 155 509 288 46 91 54 143 60 432 l6 275 38 72 c57 111 51 122 -45 97 -44 -11 -86 -15 -139 -11 -65 4 -92 13 -200 63 -113 52 -131 58 -204 61 -50 2 -100 -3 -132 -12z m292 -71 c178 -79 249 -90 378 -60 31 7 57 11 57 7 0 -3 -16 -31 -36 -61 -53 -84 -57 -111 -49 -330 5 -157 3 -209 -9 -268 -32 -154 -126 -274 -268 -342 -115 -56 -206 -74 -358 -73 -177 1 -341 41 -495 121 -125 64 -188 120 -315 272 -67 82 -95 107 -145 133 l-40 20 35 9 c89 22 164 79 281 215 174 202 248 253 380 261 43 2 85 0 95 -6 15 -8 24 -3 55 32 70 79 181 120 299 110 32 -3 88 -19 135 -40z"/> <path d="M1455 1426 c-55 -17 -103 -43 -150 -81 -55 -43 -84 -53 -198 -64 -133 -13 -179 -36 -307 -154 -104 -96 -200 -157 -246 -157 -21 0 -17 -6 29 -51 175 -172 447 -287 722 -306 95 -6 181 8 251 42 63 31 182 134 232 201 68 91 84 136 93 264 9 139 16 162 69 247 23 35 39 67 36 70 -3 3 -39 -7 -81 -21 -94 -32 -134 -33 -232 -1 -85 27 -156 31 -218 11z m203 -31 c12 -11 -30 -35 -61 -35 -17 0 -36 8 -44 18 -13 15 -14 14 -8 -12 7 -35 -14 -62 -58 -72 -26 -5 -34 -2 -54 22 -26 33 -31 18 -8 -26 13 -26 13 -30 -2 -45 -21 -21 -57 -35 -92 -35 -21 0 -31 8 -44 33 l-17 32 6 -42 c5 -39 3 -43 -25 -57 -16 -9 -44 -16 -60 -16 -25 0 -34 7 -51 38 l-20 37 6 -39 c8 -45 -3 -56 -56 -56 -46 0 -56 8 -63 52 -4 29 -2 38 11 42 16 5 183 26 208 26 7 0 40 20 75 44 126 86 186 107 282 102 37 -2 71 -7 75 -11z m285 -7 c-62 -69 -75 -102 -84 -224 -5 -64 -10 -119 -12 -121 -2 -2 -33 10 -69 27 -85 38 -167 51 -238 38 -62 -11 -75 -17 -148 -66 -49 -33 -59 -36 -158 -43 -89 -6 -117 -13 -169 -38 -57 -28 -135 -98 -177 -160 l-17 -24 -56 23 c-66 27 -160 87 -194 123 l-23 26 40 11 c42 11 110 57 172 116 26 25 39 31 50 24 21 -13 78 -11 120 4 24 9 47 10 74 4 29 -7 44 -5 63 7 15 10 34 14 56 10 37 -7 83 7 114 37 12 11 29 18 37 15 26 -10 90 15 121 47 17 18 43 36 57 39 15 4 38 18 50 31 13 13 36 27 52 30 16 4 44 18 63 30 29 20 40 22 75 15 46 -11 132 2 175 25 40 22 50 19 26 -6z m-957 -204 c4 -21 2 -40 -4 -46 -16 -16 -122 -24 -122 -10 0 11 98 90 112 91 4 1 10 -15 14 -35z m768 -130 c94 -34 96 -41 40 -130 -23 -37 -40 -53 -61 -57 -15 -3 -64 -19 -108 -35 -143 -54 -258 -88 -325 -97 -25 -4 -72 -11 -105 -16 -137 -22 -139 -22 -211 6 -38 15 -73 32 -79 37 -15 15 107 123 179 158 68 34 179 57 221 46 20 -5 33 -21 52 -64 32 -69 42 -55 13 19 l-22 54 29 22 c42 34 106 63 160 73 60 11 163 3 217 -16z m-74 -256 c0 -16 -30 -48 -45 -48 -12 0 -25 21 -25 40 0 5 8 11 18 13 33 9 52 7 52 -5z m-78 -34 c11 -23 10 -29 -11 -45 -27 -22 -51 -25 -51 -6 0 6 -3 22 -6 34 -5 18 -1 25 17 32 35 14 38 13 51 -15z m-80 -39 c6 -14 9 -27 7 -30 -7 -7 -121 -35 -142 -35 -15 0 -18 6 -15 33 4 42 42 51 70 15 l19 -23 -6 33 c-6 31 -5 32 24 32 24 0 34 -6 43 -25z m-172 -12 c0 -5 3 -18 6 -30 6 -21 3 -23 -27 -23 -44 0 -79 10 -79 22 0 19 100 50 100 31z m-120 -33 c0 -5 -13 -10 -30 -10 -16 0 -30 5 -30 10 0 6 14 10 30 10 17 0 30 -4 30 -10z"/>    </g> </svg> 
