 <svg version="1.0" xmlns="http://www.w3.org/2000/svg"  width="243.000000pt" height="208.000000pt" viewBox="0 0 243.000000 208.000000"  preserveAspectRatio="xMidYMid meet">  <g transform="translate(60.000000,135.000000) scale(0.030000,-0.030000)" fill="#000000" stroke="none"> <path d="M2083 1446 c74 -27 107 -76 107 -160 0 -30 -5 -67 -10 -82 -19 -48 -1 -38 20 11 28 66 36 127 20 166 -15 36 -95 79 -145 78 -30 0 -29 0 8 -13z"/> <path d="M285 1416 c-61 -28 -75 -44 -82 -93 -5 -41 27 -142 52 -163 11 -9 11 -3 -1 37 -19 60 -13 136 13 171 10 15 39 37 63 50 60 30 20 29 -45 -2z"/> <path d="M325 1291 c11 -51 75 -168 116 -214 80 -91 232 -182 384 -230 160 -50 239 -61 420 -61 187 0 289 17 422 70 207 82 382 244 428 397 l13 45 -656 6 c-362 3 -764 8 -895 10 l-238 3 6 -26z m115 -62 c0 -22 5 -50 11 -61 8 -16 8 -19 -1 -13 -14 8 -70 95 -70 107 0 4 14 8 30 8 28 0 30 -2 30 -41z m192 -41 c3 -46 0 -89 -5 -95 -5 -7 -27 -18 -49 -24 -38 -10 -42 -8 -69 17 -28 27 -49 93 -49 154 l0 30 84 0 84 0 4 -82z m139 72 l89 0 0 -74 c0 -98 -15 -117 -94 -124 -44 -3 -61 -1 -76 13 -19 17 -38 85 -41 145 -2 50 -1 53 17 46 9 -3 56 -6 105 -6z m427 -108 l4 -108 -28 -14 c-43 -23 -200 -20 -241 4 -40 25 -50 51 -56 149 l-5 77 161 0 162 0 3 -108z m332 21 c-3 -49 -11 -98 -17 -109 -22 -38 -73 -54 -170 -54 -117 0 -118 2 -127 143 l-7 107 163 0 163 0 -5 -87z m228 17 c-3 -40 -12 -80 -22 -95 -15 -22 -23 -25 -75 -25 -88 0 -104 17 -109 114 l-4 76 107 0 108 0 -5 -70z m183 10 c-5 -101 -38 -132 -119 -111 l-42 12 0 80 0 80 82 -3 82 -3 -3 -55z m99 50 c0 -9 -77 -120 -83 -120 -2 0 -2 14 2 103 1 25 4 27 41 27 22 0 40 -5 40 -10z m-1125 -226 c11 -5 15 -24 15 -79 l0 -74 -70 20 c-38 10 -87 26 -110 35 -39 16 -40 18 -40 64 l0 47 57 6 c37 4 63 13 77 26 l20 20 18 -30 c10 -16 25 -32 33 -35z m645 57 c0 -11 55 -31 85 -31 26 0 35 -22 35 -91 l0 -46 -72 -21 c-40 -12 -92 -26 -115 -31 -40 -8 -43 -7 -43 13 0 11 -3 44 -6 71 -6 50 -6 50 30 68 21 9 45 31 54 47 17 29 32 39 32 21z m-881 -24 c7 -13 11 -42 9 -64 l-3 -41 -70 46 -70 46 30 6 c17 4 40 12 50 18 29 17 40 15 54 -11z m1134 17 c30 -6 37 -11 37 -30 0 -14 -12 -32 -32 -47 -46 -33 -108 -70 -112 -66 -2 2 -7 30 -10 62 -6 46 -5 57 7 57 8 0 20 7 27 15 14 16 27 18 83 9z m-608 -139 c0 -52 -3 -95 -6 -95 -24 0 -217 22 -231 26 -15 4 -18 17 -18 74 l0 68 40 -10 c47 -12 156 -3 191 17 13 7 24 13 24 14 0 1 0 -42 0 -94z m137 57 l86 -3 4 -69 3 -68 -59 -6 c-32 -3 -81 -6 -107 -6 l-49 0 0 86 c0 79 2 85 18 78 9 -5 56 -10 104 -12z"/> <path d="M718 1223 c23 -2 59 -2 80 0 20 2 1 4 -43 4 -44 0 -61 -2 -37 -4z"/> <path d="M975 1220 c39 -4 99 -7 135 -7 l65 0 -60 7 c-33 4 -94 8 -135 7 l-75 0 70 -7z"/> <path d="M1292 1213 c37 -2 100 -2 140 0 40 1 10 3 -67 3 -77 0 -110 -1 -73 -3z"/> <path d="M1613 1213 c26 -2 67 -2 90 0 23 2 2 3 -48 3 -49 0 -68 -1 -42 -3z"/> <path d="M745 972 c13 -11 114 -52 129 -51 12 0 4 4 -84 39 -30 12 -50 17 -45 12z"/> <path d="M1278 873 c18 -2 45 -2 60 0 15 2 0 4 -33 4 -33 0 -45 -2 -27 -4z"/> <path d="M872 778 c8 -24 126 -106 185 -129 69 -27 215 -32 303 -10 56 14 204 71 198 76 -2 2 -35 -5 -73 -16 -102 -30 -251 -36 -354 -15 -100 20 -177 48 -226 82 -20 13 -35 19 -33 12z"/> </g> </svg> 