 <svg version="1.0" xmlns="http://www.w3.org/2000/svg"  width="237.000000pt" height="212.000000pt" viewBox="0 0 237.000000 212.000000"  preserveAspectRatio="xMidYMid meet">  <g transform="translate(60.000000,135.000000) scale(0.030000,-0.030000)" fill="#000000" stroke="none"> <path d="M1881 1814 c-40 -17 -37 -29 3 -14 56 21 49 8 -19 -32 -150 -88 -363 -167 -495 -184 -19 -2 -62 -9 -95 -14 -33 -5 -128 -10 -211 -10 -228 0 -376 22 -608 92 -120 36 -136 43 -111 50 15 4 32 5 37 2 4 -3 8 0 8 5 0 14 -61 14 -97 0 -31 -11 -73 -47 -73 -62 0 -5 15 4 33 19 l32 27 2 -59 c7 -159 37 -341 78 -473 92 -291 239 -462 462 -537 68 -23 95 -27 208 -27 158 -1 282 25 399 85 22 11 43 20 46 19 9 -3 0 -53 -22 -123 -51 -166 11 -268 173 -287 79 -10 209 4 278 29 286 105 336 468 93 690 -35 33 -87 68 -116 81 l-53 22 24 61 c64 165 103 367 103 544 l0 103 29 -16 c37 -19 48 -35 30 -46 -12 -7 -12 -10 0 -21 9 -8 11 -9 7 -1 -3 6 -2 14 4 18 16 10 12 24 -15 50 -28 29 -81 33 -134 9z m49 -219 c-13 -126 -58 -323 -94 -411 -21 -51 -28 -59 -48 -56 -13 2 -82 6 -154 9 l-130 5 -1 64 c0 55 -5 73 -32 115 -17 28 -31 51 -31 53 0 1 9 2 21 3 24 2 190 86 232 117 59 44 163 139 174 160 7 11 12 37 13 58 0 28 6 41 28 56 l27 21 3 -42 c2 -23 -1 -91 -8 -152z m-80 82 c-6 -17 -22 -40 -35 -50 l-25 -18 0 45 c0 39 4 46 33 63 38 23 45 12 27 -40z m-98 -106 c-10 -14 -27 -27 -36 -29 -13 -3 -16 6 -16 57 0 59 1 61 33 74 l32 14 3 -45 c2 -33 -2 -53 -16 -71z m-1362 36 c0 -31 6 -45 31 -68 17 -16 36 -29 43 -29 6 0 29 -14 50 -30 22 -16 54 -32 72 -36 18 -3 40 -15 50 -25 9 -10 21 -19 27 -19 5 0 33 -7 63 -16 l53 -15 -22 -42 c-75 -145 14 -366 180 -444 46 -21 52 -27 43 -43 -6 -12 -25 -20 -57 -23 -204 -23 -241 -36 -229 -79 2 -10 1 -20 -3 -22 -13 -9 -143 126 -186 193 -102 159 -173 407 -190 668 l-7 102 41 -16 c38 -15 41 -19 41 -56z m1285 -84 c-4 -16 -26 -34 -75 -58 -38 -19 -71 -35 -72 -35 -2 0 -2 38 0 84 l3 84 72 23 72 24 3 -49 c2 -28 1 -60 -3 -73z m-1213 102 c44 -16 45 -17 46 -60 0 -25 -2 -45 -5 -45 -3 0 -22 10 -43 21 -36 21 -50 42 -50 82 0 21 -4 20 52 2z m146 -40 c2 -2 2 -30 0 -63 l-3 -60 -35 12 c-34 11 -35 12 -38 69 l-3 58 38 -7 c21 -4 39 -8 41 -9z m890 -87 l-3 -93 -58 -9 c-31 -5 -59 -7 -61 -5 -2 2 -6 41 -10 86 l-6 82 37 6 c21 4 49 10 63 15 14 5 29 9 33 9 4 1 6 -41 5 -91z m-775 67 l47 -7 0 -83 0 -82 -56 18 c-80 27 -84 31 -84 106 0 62 1 65 23 60 12 -3 43 -9 70 -12z m198 -25 l39 0 0 -95 c0 -72 -3 -95 -13 -95 -31 0 -133 23 -144 32 -9 7 -13 39 -13 91 l0 80 46 -7 c26 -3 64 -6 85 -6z m423 -72 c4 -45 3 -84 -1 -88 -8 -7 -128 -30 -157 -30 -14 0 -16 14 -16 94 l0 95 53 4 c28 2 66 4 83 5 l31 2 7 -82z m-200 -27 c-1 -48 -4 -93 -8 -100 -8 -12 -146 -16 -146 -3 0 4 -2 49 -3 100 l-2 92 80 0 80 0 -1 -89z m278 -88 c38 -44 59 -104 56 -161 l-3 -57 -54 -12 c-140 -30 -249 -87 -353 -183 l-67 -61 -43 19 c-138 62 -234 240 -199 369 6 22 19 50 29 62 18 22 19 22 175 -10 l57 -12 0 -44 c0 -86 43 -145 106 -145 26 0 44 7 63 26 24 24 26 33 26 106 0 44 2 80 5 80 66 7 100 14 120 25 36 18 65 18 82 -2z m-226 -69 c7 -50 -7 -114 -30 -133 -24 -20 -77 -9 -97 19 -10 14 -22 51 -25 83 l-7 57 54 0 c30 0 61 5 69 10 25 16 28 12 36 -36z m569 -177 c221 -50 371 -229 367 -439 -4 -227 -199 -374 -472 -355 -167 11 -229 96 -182 246 31 101 33 119 22 161 -14 53 -50 93 -107 120 -58 27 -150 31 -185 8 -15 -10 -35 -14 -53 -10 l-28 5 49 44 c27 24 83 60 124 81 73 36 78 37 185 37 101 0 115 -2 168 -29 90 -45 143 -119 154 -216 6 -60 13 -64 13 -8 0 67 -50 161 -109 203 -66 49 -131 69 -231 69 -132 1 -235 -42 -332 -137 -53 -52 -65 -59 -111 -64 l-51 -6 44 52 c141 167 358 256 600 246 63 -2 124 -6 135 -8z m-382 -287 c10 -10 4 -11 -28 -6 -22 3 -67 6 -100 6 -46 1 -55 3 -40 10 27 13 154 6 168 -10z m-197 -106 c8 -92 9 -90 -71 -96 l-40 -3 -8 75 c-11 111 -10 114 43 120 25 3 50 1 57 -5 7 -5 15 -47 19 -91z m134 16 l0 -69 -47 -13 c-57 -17 -57 -17 -67 84 l-6 67 52 3 c29 2 56 2 61 0 4 -2 7 -34 7 -72z m-280 16 c0 -24 3 -63 6 -87 l6 -45 -78 7 c-44 4 -80 8 -80 8 -1 1 -5 22 -8 49 -4 26 -10 62 -13 80 l-5 32 86 0 86 0 0 -44z m398 2 c3 -32 -1 -39 -25 -51 -66 -34 -68 -33 -65 34 l4 60 41 -3 c40 -3 42 -4 45 -40z m-581 -40 c5 -40 10 -74 9 -75 -1 -1 -34 12 -74 29 l-73 30 3 37 c3 35 4 36 53 42 28 3 55 7 61 7 6 1 15 -30 21 -70z"/> </g> </svg> 